<svg width="30" height="24" viewBox="0 0 30 24" fill="none" xmlns="http://www.w3.org/2000/svg">
<g clip-path="url(#clip0_61_2)">
<path d="M0.0140625 7.82344L0 3.1875C0 2.70469 0.445312 2.34844 0.914062 2.45156L2.58281 2.82188C3.07969 2.92969 3.48281 3.28594 3.66094 3.75937L4.5 6L10.4672 7.7625L8.52188 0.95625C8.38594 0.478125 8.74687 0 9.24375 0H11.1234C11.6672 0 12.1641 0.290625 12.4313 0.764062L17.5406 9.84844L22.5656 11.3344C23.3109 11.5547 24.0094 11.9203 24.6141 12.4031L26.2266 13.6969C27.3516 14.5969 27.075 16.3828 25.725 16.8937C23.7937 17.625 21.6844 17.7422 19.6875 17.2219L5.70469 13.5844C5.18437 13.4484 4.71094 13.1766 4.33125 12.7922L0.445312 8.87812C0.16875 8.59687 0.009375 8.21719 0.009375 7.82344H0.0140625ZM1.5 21H28.5C29.3297 21 30 21.6703 30 22.5C30 23.3297 29.3297 24 28.5 24H1.5C0.670312 24 0 23.3297 0 22.5C0 21.6703 0.670312 21 1.5 21ZM6 17.25C6 16.8522 6.15804 16.4706 6.43934 16.1893C6.72064 15.908 7.10218 15.75 7.5 15.75C7.89782 15.75 8.27936 15.908 8.56066 16.1893C8.84196 16.4706 9 16.8522 9 17.25C9 17.6478 8.84196 18.0294 8.56066 18.3107C8.27936 18.592 7.89782 18.75 7.5 18.75C7.10218 18.75 6.72064 18.592 6.43934 18.3107C6.15804 18.0294 6 17.6478 6 17.25ZM12 16.5C12.3978 16.5 12.7794 16.658 13.0607 16.9393C13.342 17.2206 13.5 17.6022 13.5 18C13.5 18.3978 13.342 18.7794 13.0607 19.0607C12.7794 19.342 12.3978 19.5 12 19.5C11.6022 19.5 11.2206 19.342 10.9393 19.0607C10.658 18.7794 10.5 18.3978 10.5 18C10.5 17.6022 10.658 17.2206 10.9393 16.9393C11.2206 16.658 11.6022 16.5 12 16.5Z" fill="#FF5F19"/>
</g>
<defs>
<clipPath id="clip0_61_2">
<rect width="30" height="24" fill="white"/>
</clipPath>
</defs>
</svg>
