<svg width="184" height="24" viewBox="0 0 184 24" fill="none" xmlns="http://www.w3.org/2000/svg">
<path fill-rule="evenodd" clip-rule="evenodd" d="M0.961803 23.1103C1.13247 23.281 1.33514 23.3663 1.5698 23.3663H12.5138C14.4551 23.3663 16.0871 23.1103 17.4098 22.5983C18.7538 22.0863 19.7778 21.3183 20.4818 20.2943C21.1858 19.249 21.5378 17.9263 21.5378 16.3263C21.5378 15.2596 21.2285 14.3103 20.6098 13.4783C20.0125 12.625 19.3085 12.0276 18.4978 11.6863C18.8391 11.5156 19.2018 11.249 19.5858 10.8863C19.9911 10.5236 20.3325 10.0756 20.6098 9.54231C20.9085 8.98764 21.0578 8.36898 21.0578 7.68631C21.0578 6.19298 20.7378 4.95564 20.0978 3.97431C19.4791 2.97164 18.5191 2.22497 17.2178 1.73431C15.9165 1.22231 14.2418 0.966309 12.1938 0.966309H1.5698C1.33514 0.966309 1.13247 1.05164 0.961803 1.22231C0.791136 1.39298 0.705803 1.59564 0.705803 1.83031V22.5023C0.705803 22.737 0.791136 22.9396 0.961803 23.1103ZM11.6818 17.8623H8.7058V14.7263H11.6818C12.1725 14.7263 12.5351 14.897 12.7698 15.2383C13.0258 15.5583 13.1538 15.9103 13.1538 16.2943C13.1538 16.6356 13.0365 16.9876 12.8018 17.3503C12.5885 17.6916 12.2151 17.8623 11.6818 17.8623ZM11.3938 9.38231H8.7058V6.47031H11.3938C11.8631 6.47031 12.1938 6.63031 12.3858 6.95031C12.5991 7.27031 12.7058 7.60098 12.7058 7.94231C12.7058 8.28364 12.5991 8.61431 12.3858 8.93431C12.1938 9.23298 11.8631 9.38231 11.3938 9.38231ZM22.2628 23.1743C22.4121 23.3023 22.5828 23.3663 22.7748 23.3663H28.6948C29.1215 23.3663 29.4201 23.281 29.5908 23.1103C29.7615 22.9183 29.8788 22.737 29.9428 22.5663L30.7108 20.4543H37.5908L38.3588 22.5663C38.4228 22.737 38.5401 22.9183 38.7108 23.1103C38.9028 23.281 39.2015 23.3663 39.6068 23.3663H45.5268C45.7188 23.3663 45.8788 23.3023 46.0068 23.1743C46.1561 23.025 46.2308 22.8543 46.2308 22.6623C46.2308 22.577 46.2201 22.5023 46.1988 22.4383L39.0628 2.02231C38.9988 1.78764 38.8495 1.55298 38.6148 1.31831C38.3801 1.08364 38.0495 0.966309 37.6228 0.966309H30.6788C30.2521 0.966309 29.9215 1.08364 29.6868 1.31831C29.4521 1.55298 29.3028 1.78764 29.2388 2.02231L22.1028 22.4383C22.0815 22.5023 22.0708 22.577 22.0708 22.6623C22.0708 22.8543 22.1348 23.025 22.2628 23.1743ZM35.9588 14.2143H32.3428L34.1348 8.26231L35.9588 14.2143ZM48.2431 23.1103C48.4137 23.281 48.6164 23.3663 48.8511 23.3663H54.9631C55.1977 23.3663 55.4004 23.281 55.5711 23.1103C55.7417 22.9396 55.8271 22.737 55.8271 22.5023V16.4863H64.3391C64.5737 16.4863 64.7764 16.401 64.9471 16.2303C65.1177 16.0596 65.2031 15.857 65.2031 15.6223V10.7903C65.2031 10.5556 65.1177 10.353 64.9471 10.1823C64.7764 10.0116 64.5737 9.92631 64.3391 9.92631H55.8271V7.55831H64.9791C65.2137 7.55831 65.4164 7.47298 65.5871 7.30231C65.7577 7.13164 65.8431 6.92898 65.8431 6.69431V1.83031C65.8431 1.59564 65.7577 1.39298 65.5871 1.22231C65.4164 1.05164 65.2137 0.966309 64.9791 0.966309H48.8511C48.6164 0.966309 48.4137 1.05164 48.2431 1.22231C48.0724 1.39298 47.9871 1.59564 47.9871 1.83031V22.5023C47.9871 22.737 48.0724 22.9396 48.2431 23.1103ZM68.1346 23.2263C68.2279 23.3196 68.3479 23.3663 68.4946 23.3663H71.0146C71.1612 23.3663 71.2812 23.3196 71.3746 23.2263C71.4812 23.133 71.5346 23.013 71.5346 22.8663V20.3263C71.5346 20.193 71.4812 20.0796 71.3746 19.9863C71.2812 19.8796 71.1612 19.8263 71.0146 19.8263H68.4946C68.3479 19.8263 68.2279 19.8796 68.1346 19.9863C68.0412 20.0796 67.9946 20.193 67.9946 20.3263V22.8663C67.9946 23.013 68.0412 23.133 68.1346 23.2263ZM74.9581 23.1663C75.5315 23.433 76.1781 23.5663 76.8981 23.5663C77.4181 23.5663 77.8715 23.4996 78.2582 23.3663C78.6581 23.2463 79.0048 23.0796 79.2981 22.8663C79.5915 22.653 79.8248 22.4196 79.9981 22.1663V22.8663C79.9981 23.013 80.0448 23.133 80.1381 23.2263C80.2315 23.3196 80.3515 23.3663 80.4981 23.3663H82.8181C82.9515 23.3663 83.0648 23.3196 83.1581 23.2263C83.2648 23.133 83.3181 23.013 83.3181 22.8663V16.7863C83.3181 16.1996 83.2248 15.6663 83.0381 15.1863C82.8515 14.693 82.5648 14.2663 82.1781 13.9063C81.8048 13.5463 81.3115 13.2663 80.6981 13.0663C80.0848 12.8663 79.3448 12.7663 78.4781 12.7663C77.6515 12.7663 76.9448 12.8663 76.3581 13.0663C75.7715 13.2663 75.2915 13.5196 74.9181 13.8263C74.5448 14.133 74.2648 14.4463 74.0781 14.7663C73.9048 15.073 73.8181 15.3463 73.8181 15.5863C73.8048 15.7063 73.8381 15.813 73.9181 15.9063C73.9981 15.9863 74.1115 16.0263 74.2582 16.0263H76.4981C76.7115 16.0263 76.8781 15.9396 76.9981 15.7663C77.1315 15.513 77.3115 15.313 77.5381 15.1663C77.7781 15.0196 78.0848 14.9463 78.4581 14.9463C78.9915 14.9463 79.3581 15.073 79.5581 15.3263C79.7582 15.5796 79.8581 15.9463 79.8581 16.4263V16.7063L77.3581 17.0863C76.0781 17.2863 75.0515 17.6663 74.2781 18.2263C73.5048 18.773 73.1181 19.5196 73.1181 20.4663C73.1181 21.053 73.2848 21.5796 73.6181 22.0463C73.9515 22.513 74.3981 22.8863 74.9581 23.1663ZM78.8781 21.0463C78.5715 21.2063 78.2248 21.2863 77.8381 21.2863C77.5715 21.2863 77.3315 21.2463 77.1181 21.1663C76.9048 21.073 76.7315 20.9463 76.5981 20.7863C76.4648 20.6263 76.3981 20.433 76.3981 20.2063C76.3981 19.913 76.5381 19.6596 76.8181 19.4463C77.1115 19.2196 77.5715 19.053 78.1981 18.9463L79.8981 18.6463V18.9263C79.8981 19.4596 79.8048 19.9063 79.6181 20.2663C79.4448 20.613 79.1981 20.873 78.8781 21.0463ZM85.715 23.2263C85.8084 23.3196 85.9284 23.3663 86.075 23.3663H88.435C88.5684 23.3663 88.6817 23.3196 88.775 23.2263C88.8817 23.133 88.935 23.013 88.935 22.8663V13.4663C88.935 13.3196 88.8817 13.1996 88.775 13.1063C88.6817 13.013 88.5684 12.9663 88.435 12.9663H86.075C85.9284 12.9663 85.8084 13.013 85.715 13.1063C85.6217 13.1996 85.575 13.3196 85.575 13.4663V22.8663C85.575 23.013 85.6217 23.133 85.715 23.2263ZM85.695 11.3263C85.7884 11.4196 85.9084 11.4663 86.055 11.4663H88.435C88.5817 11.4663 88.7017 11.4196 88.795 11.3263C88.9017 11.233 88.955 11.113 88.955 10.9663V9.18631C88.955 9.03964 88.9017 8.91964 88.795 8.82631C88.7017 8.71964 88.5817 8.66631 88.435 8.66631H86.055C85.9084 8.66631 85.7884 8.71964 85.695 8.82631C85.6017 8.91964 85.555 9.03964 85.555 9.18631V10.9663C85.555 11.113 85.6017 11.233 85.695 11.3263ZM92.0431 23.2263C92.1365 23.3196 92.2565 23.3663 92.4031 23.3663H94.8832C95.0298 23.3663 95.1498 23.3196 95.2431 23.2263C95.3498 23.133 95.4031 23.013 95.4031 22.8663V17.7463C95.4031 17.1996 95.5498 16.7796 95.8431 16.4863C96.1498 16.1796 96.5765 16.0263 97.1231 16.0263H99.0632C99.1965 16.0263 99.3098 15.9796 99.4031 15.8863C99.5098 15.7796 99.5632 15.6596 99.5632 15.5263V13.4663C99.5632 13.3196 99.5098 13.1996 99.4031 13.1063C99.3098 13.013 99.1965 12.9663 99.0632 12.9663H98.1831C97.5565 12.9663 96.9898 13.0796 96.4831 13.3063C95.9898 13.533 95.5632 13.853 95.2031 14.2663V13.4663C95.2031 13.333 95.1565 13.2196 95.0631 13.1263C94.9698 13.0196 94.8498 12.9663 94.7031 12.9663H92.4031C92.2565 12.9663 92.1365 13.0196 92.0431 13.1263C91.9498 13.2196 91.9031 13.333 91.9031 13.4663V22.8663C91.9031 23.013 91.9498 23.133 92.0431 23.2263ZM101.125 23.2263C101.219 23.3196 101.339 23.3663 101.485 23.3663H103.845C103.992 23.3663 104.112 23.3196 104.205 23.2263C104.299 23.133 104.345 23.013 104.345 22.8663V9.66631C104.345 9.51964 104.299 9.39964 104.205 9.30631C104.112 9.21298 103.992 9.16631 103.845 9.16631H101.485C101.339 9.16631 101.219 9.21298 101.125 9.30631C101.032 9.39964 100.985 9.51964 100.985 9.66631V22.8663C100.985 23.013 101.032 23.133 101.125 23.2263ZM107.531 23.2263C107.625 23.3196 107.745 23.3663 107.891 23.3663H110.251C110.385 23.3663 110.498 23.3196 110.591 23.2263C110.698 23.133 110.751 23.013 110.751 22.8663V13.4663C110.751 13.3196 110.698 13.1996 110.591 13.1063C110.498 13.013 110.385 12.9663 110.251 12.9663H107.891C107.745 12.9663 107.625 13.013 107.531 13.1063C107.438 13.1996 107.391 13.3196 107.391 13.4663V22.8663C107.391 23.013 107.438 23.133 107.531 23.2263ZM107.511 11.3263C107.605 11.4196 107.725 11.4663 107.871 11.4663H110.251C110.398 11.4663 110.518 11.4196 110.611 11.3263C110.718 11.233 110.771 11.113 110.771 10.9663V9.18631C110.771 9.03964 110.718 8.91964 110.611 8.82631C110.518 8.71964 110.398 8.66631 110.251 8.66631H107.871C107.725 8.66631 107.605 8.71964 107.511 8.82631C107.418 8.91964 107.371 9.03964 107.371 9.18631V10.9663C107.371 11.113 107.418 11.233 107.511 11.3263ZM113.86 23.2263C113.953 23.3196 114.073 23.3663 114.22 23.3663H116.72C116.853 23.3663 116.966 23.3196 117.06 23.2263C117.166 23.133 117.22 23.013 117.22 22.8663V17.4063C117.22 16.7796 117.38 16.2996 117.7 15.9663C118.033 15.6196 118.473 15.4463 119.02 15.4463C119.606 15.4463 120.046 15.6196 120.34 15.9663C120.646 16.2996 120.8 16.7796 120.8 17.4063V22.8663C120.8 23.013 120.846 23.133 120.94 23.2263C121.046 23.3196 121.166 23.3663 121.3 23.3663H123.82C123.953 23.3663 124.066 23.3196 124.16 23.2263C124.266 23.133 124.32 23.013 124.32 22.8663V17.2863C124.32 16.313 124.146 15.493 123.8 14.8263C123.466 14.1463 123 13.633 122.4 13.2863C121.813 12.9396 121.133 12.7663 120.36 12.7663C119.6 12.7663 118.94 12.9063 118.38 13.1863C117.82 13.4663 117.366 13.813 117.02 14.2263V13.4663C117.02 13.3196 116.973 13.1996 116.88 13.1063C116.786 13.013 116.666 12.9663 116.52 12.9663H114.22C114.073 12.9663 113.953 13.013 113.86 13.1063C113.766 13.1996 113.72 13.3196 113.72 13.4663V22.8663C113.72 23.013 113.766 23.133 113.86 23.2263ZM127.592 22.2863C128.525 23.1396 129.778 23.5663 131.352 23.5663C132.165 23.5663 132.878 23.4663 133.492 23.2663C134.105 23.0663 134.612 22.813 135.012 22.5063C135.425 22.1863 135.738 21.8663 135.952 21.5463C136.165 21.2263 136.278 20.953 136.292 20.7263C136.305 20.593 136.265 20.493 136.172 20.4263C136.092 20.3463 135.985 20.3063 135.852 20.3063H133.372C133.212 20.3063 133.092 20.3263 133.012 20.3663C132.945 20.393 132.852 20.473 132.732 20.6063C132.665 20.6863 132.572 20.7863 132.452 20.9063C132.332 21.013 132.178 21.113 131.992 21.2063C131.818 21.2863 131.598 21.3263 131.332 21.3263C130.972 21.3263 130.665 21.233 130.412 21.0463C130.158 20.8596 129.972 20.6063 129.852 20.2863C129.732 19.9663 129.665 19.613 129.652 19.2263V19.1463V19.0863H136.052C136.185 19.0863 136.298 19.0396 136.392 18.9463C136.498 18.853 136.552 18.733 136.552 18.5863V18.1063C136.552 17.0796 136.358 16.1663 135.972 15.3663C135.585 14.5663 135.005 13.933 134.232 13.4663C133.472 12.9996 132.505 12.7663 131.332 12.7663C130.305 12.7663 129.405 12.9663 128.632 13.3663C127.872 13.753 127.272 14.3263 126.832 15.0863C126.405 15.833 126.172 16.733 126.132 17.7863V18.1263V18.4863C126.172 20.1663 126.658 21.433 127.592 22.2863ZM133.032 17.1063H129.652V17.0663C129.652 16.6396 129.718 16.2663 129.852 15.9463C129.985 15.6263 130.172 15.3796 130.412 15.2063C130.665 15.033 130.972 14.9463 131.332 14.9463C131.692 14.9463 131.998 15.033 132.252 15.2063C132.518 15.3796 132.712 15.6263 132.832 15.9463C132.965 16.2663 133.032 16.6396 133.032 17.0663V17.1063ZM140.487 23.2863C141.1 23.473 141.84 23.5663 142.707 23.5663C143.773 23.5663 144.68 23.433 145.427 23.1663C146.173 22.8863 146.733 22.4996 147.107 22.0063C147.493 21.513 147.687 20.9463 147.687 20.3063C147.687 19.8263 147.573 19.373 147.347 18.9463C147.12 18.5063 146.733 18.1263 146.187 17.8063C145.64 17.473 144.907 17.233 143.987 17.0863C143.24 16.9396 142.687 16.8063 142.327 16.6863C141.98 16.5663 141.747 16.433 141.627 16.2863C141.52 16.1396 141.467 15.9796 141.467 15.8063C141.467 15.553 141.567 15.3463 141.767 15.1863C141.967 15.0263 142.247 14.9463 142.607 14.9463C142.927 14.9463 143.193 14.9996 143.407 15.1063C143.62 15.213 143.807 15.333 143.967 15.4663C144.127 15.5996 144.287 15.7063 144.447 15.7863C144.487 15.813 144.533 15.8396 144.587 15.8663C144.64 15.8796 144.693 15.8863 144.747 15.8863H146.827C146.947 15.8863 147.053 15.8396 147.147 15.7463C147.24 15.6396 147.28 15.5196 147.267 15.3863C147.253 15.1463 147.147 14.8796 146.947 14.5863C146.747 14.293 146.447 14.0063 146.047 13.7263C145.66 13.4463 145.18 13.2196 144.607 13.0463C144.047 12.8596 143.38 12.7663 142.607 12.7663C141.633 12.7663 140.813 12.9263 140.147 13.2463C139.48 13.553 138.973 13.953 138.627 14.4463C138.28 14.9396 138.107 15.453 138.107 15.9863C138.107 16.5863 138.247 17.0996 138.527 17.5263C138.807 17.9396 139.207 18.2796 139.727 18.5463C140.247 18.7996 140.853 19.0063 141.547 19.1663C142.28 19.2996 142.827 19.433 143.187 19.5663C143.56 19.6996 143.807 19.8396 143.927 19.9863C144.047 20.1196 144.107 20.293 144.107 20.5063C144.107 20.7996 143.98 21.0196 143.727 21.1663C143.473 21.313 143.16 21.3863 142.787 21.3863C142.467 21.3863 142.193 21.333 141.967 21.2263C141.74 21.1196 141.54 20.9996 141.367 20.8663C141.193 20.7196 141.02 20.5996 140.847 20.5063C140.793 20.4663 140.753 20.4396 140.727 20.4263C140.7 20.413 140.667 20.4063 140.627 20.4063H138.347C138.227 20.4063 138.113 20.4596 138.007 20.5663C137.9 20.6596 137.853 20.7796 137.867 20.9263C137.88 21.1396 137.98 21.3996 138.167 21.7063C138.353 21.9996 138.633 22.2863 139.007 22.5663C139.393 22.8463 139.887 23.0863 140.487 23.2863ZM162.669 1.55665L171.805 4.98321L176.661 2.50352C177.505 2.07227 178.443 1.84727 179.39 1.84727H182.08C183.346 1.84727 184.222 3.1129 183.777 4.29415C182.919 6.57696 181.232 8.45196 179.052 9.54415L166.26 15.9379C166.054 16.041 165.824 16.0973 165.59 16.0973H159.135C158.699 16.0973 158.282 15.9051 157.996 15.5723L154.569 11.5738C154.25 11.2035 154.368 10.6363 154.804 10.416L156.313 9.66133C156.711 9.45977 157.185 9.4504 157.593 9.63321L160.321 10.8473L164.938 8.48946L158.052 4.05977C157.565 3.74571 157.602 3.01915 158.122 2.75665L160.274 1.68321C161.019 1.30821 161.886 1.26602 162.669 1.55665ZM155.446 23.5973C154.616 23.5973 153.946 22.927 153.946 22.0973C153.946 21.2676 154.616 20.5973 155.446 20.5973H182.446C183.275 20.5973 183.946 21.2676 183.946 22.0973C183.946 22.927 183.275 23.5973 182.446 23.5973H155.446Z" fill="white"/>
</svg>
