<svg width="35" height="35" viewBox="0 0 35 35" fill="none" xmlns="http://www.w3.org/2000/svg">
<g clip-path="url(#clip0_102_50)">
<path d="M17.5 35C22.1413 35 26.5925 33.1563 29.8744 29.8744C33.1563 26.5925 35 22.1413 35 17.5C35 12.8587 33.1563 8.40752 29.8744 5.12563C26.5925 1.84375 22.1413 0 17.5 0C12.8587 0 8.40752 1.84375 5.12563 5.12563C1.84375 8.40752 0 12.8587 0 17.5C0 22.1413 1.84375 26.5925 5.12563 29.8744C8.40752 33.1563 12.8587 35 17.5 35ZM11.9629 11.9629C12.6055 11.3203 13.6445 11.3203 14.2803 11.9629L17.4932 15.1758L20.7061 11.9629C21.3486 11.3203 22.3877 11.3203 23.0234 11.9629C23.6592 12.6055 23.666 13.6445 23.0234 14.2803L19.8105 17.4932L23.0234 20.7061C23.666 21.3486 23.666 22.3877 23.0234 23.0234C22.3809 23.6592 21.3418 23.666 20.7061 23.0234L17.4932 19.8105L14.2803 23.0234C13.6377 23.666 12.5986 23.666 11.9629 23.0234C11.3271 22.3809 11.3203 21.3418 11.9629 20.7061L15.1758 17.4932L11.9629 14.2803C11.3203 13.6377 11.3203 12.5986 11.9629 11.9629Z" fill="#FF0000"/>
</g>
<defs>
<clipPath id="clip0_102_50">
<rect width="35" height="35" fill="white"/>
</clipPath>
</defs>
</svg>
