<svg width="25" height="25" viewBox="0 0 25 25" fill="none" xmlns="http://www.w3.org/2000/svg">
<g clip-path="url(#clip0_102_17)">
<path d="M23.0273 1.05981C21.958 -0.0095215 20.2295 -0.0095215 19.1602 1.05981L17.6904 2.52466L22.4707 7.30493L23.9404 5.83521C25.0098 4.76587 25.0098 3.03735 23.9404 1.96802L23.0273 1.05981ZM8.41797 11.802C8.12012 12.0999 7.89062 12.4661 7.75879 12.8713L6.31348 17.2073C6.17188 17.6272 6.28418 18.0911 6.59668 18.4084C6.90918 18.7258 7.37305 18.8333 7.79785 18.6917L12.1338 17.2463C12.5342 17.1145 12.9004 16.885 13.2031 16.5872L21.3721 8.41333L16.5869 3.62817L8.41797 11.802ZM4.6875 3.12524C2.09961 3.12524 0 5.22485 0 7.81274V20.3127C0 22.9006 2.09961 25.0002 4.6875 25.0002H17.1875C19.7754 25.0002 21.875 22.9006 21.875 20.3127V15.6252C21.875 14.761 21.1768 14.0627 20.3125 14.0627C19.4482 14.0627 18.75 14.761 18.75 15.6252V20.3127C18.75 21.177 18.0518 21.8752 17.1875 21.8752H4.6875C3.82324 21.8752 3.125 21.177 3.125 20.3127V7.81274C3.125 6.94849 3.82324 6.25024 4.6875 6.25024H9.375C10.2393 6.25024 10.9375 5.552 10.9375 4.68774C10.9375 3.82349 10.2393 3.12524 9.375 3.12524H4.6875Z" fill="#B2B2B2"/>
</g>
<defs>
<clipPath id="clip0_102_17">
<rect width="25" height="25" fill="white"/>
</clipPath>
</defs>
</svg>
