<svg width="50" height="50" viewBox="0 0 50 50" fill="none" xmlns="http://www.w3.org/2000/svg">
<rect x="0.5" y="0.5" width="49" height="49" rx="24.5" fill="white" stroke="#FF5F19"/>
<g clip-path="url(#clip0_102_22)">
<path d="M25 25C27.4248 25 29.7504 23.9991 31.465 22.2175C33.1796 20.4359 34.1429 18.0196 34.1429 15.5C34.1429 12.9804 33.1796 10.5641 31.465 8.78249C29.7504 7.00089 27.4248 6 25 6C22.5752 6 20.2496 7.00089 18.535 8.78249C16.8204 10.5641 15.8571 12.9804 15.8571 15.5C15.8571 18.0196 16.8204 20.4359 18.535 22.2175C20.2496 23.9991 22.5752 25 25 25ZM21.7357 28.5625C14.7 28.5625 9 34.4852 9 41.7957C9 43.0129 9.95 44 11.1214 44H38.8786C40.05 44 41 43.0129 41 41.7957C41 34.4852 35.3 28.5625 28.2643 28.5625H21.7357Z" fill="black"/>
</g>
<defs>
<clipPath id="clip0_102_22">
<rect x="9" y="6" width="32" height="38" rx="16" fill="white"/>
</clipPath>
</defs>
</svg>
