<svg width="25" height="25" viewBox="0 0 25 25" fill="none" xmlns="http://www.w3.org/2000/svg">
<path d="M18.4521 5.1709L24.4482 11.167C24.7998 11.5186 25 12.002 25 12.5C25 12.998 24.7998 13.4814 24.4482 13.833L18.4521 19.8291C18.1396 20.1416 17.7197 20.3125 17.2803 20.3125C16.3672 20.3125 15.625 19.5703 15.625 18.6572V15.625H9.375C8.51074 15.625 7.8125 14.9268 7.8125 14.0625V10.9375C7.8125 10.0732 8.51074 9.375 9.375 9.375H15.625V6.34277C15.625 5.42969 16.3672 4.6875 17.2803 4.6875C17.7197 4.6875 18.1396 4.86328 18.4521 5.1709ZM7.8125 4.6875H4.6875C3.82324 4.6875 3.125 5.38574 3.125 6.25V18.75C3.125 19.6143 3.82324 20.3125 4.6875 20.3125H7.8125C8.67676 20.3125 9.375 21.0107 9.375 21.875C9.375 22.7393 8.67676 23.4375 7.8125 23.4375H4.6875C2.09961 23.4375 0 21.3379 0 18.75V6.25C0 3.66211 2.09961 1.5625 4.6875 1.5625H7.8125C8.67676 1.5625 9.375 2.26074 9.375 3.125C9.375 3.98926 8.67676 4.6875 7.8125 4.6875Z" fill="#FF5103"/>
</svg>
