<svg width="24" height="25" viewBox="0 0 24 25" fill="none" xmlns="http://www.w3.org/2000/svg">
<path d="M8.102 5.724C8 6.105 8 6.57 8 7.5V9.5C8 10.43 8 10.895 8.102 11.277C8.23847 11.7854 8.5063 12.2489 8.8786 12.621C9.2509 12.9932 9.71455 13.2608 10.223 13.397C10.605 13.5 11.07 13.5 12 13.5C12.93 13.5 13.395 13.5 13.777 13.398C14.2854 13.2615 14.7489 12.9937 15.121 12.6214C15.4932 12.2491 15.7608 11.7854 15.897 11.277C16 10.895 16 10.43 16 9.5V7.5C16 6.57 16 6.105 15.898 5.724C15.7618 5.21525 15.4941 4.7513 15.1218 4.37881C14.7495 4.00632 14.2857 3.7384 13.777 3.602C13.395 3.5 12.93 3.5 12 3.5C11.07 3.5 10.605 3.5 10.223 3.602C9.7145 3.73856 9.25089 4.00654 8.87876 4.37902C8.50662 4.75151 8.23808 5.21537 8.102 5.724ZM11 15.5C9.4087 15.5 7.88258 16.1321 6.75736 17.2574C5.63214 18.3826 5 19.9087 5 21.5H19C19 19.9087 18.3679 18.3826 17.2426 17.2574C16.1174 16.1321 14.5913 15.5 13 15.5H11Z" fill="white" fill-opacity="0.72"/>
</svg>
