<svg width="184" height="23" viewBox="0 0 184 23" fill="none" xmlns="http://www.w3.org/2000/svg">
<path fill-rule="evenodd" clip-rule="evenodd" d="M0.256 22.144C0.426667 22.3147 0.629333 22.4 0.864 22.4H11.808C13.7493 22.4 15.3813 22.144 16.704 21.632C18.048 21.12 19.072 20.352 19.776 19.328C20.48 18.2827 20.832 16.96 20.832 15.36C20.832 14.2933 20.5227 13.344 19.904 12.512C19.3067 11.6587 18.6027 11.0613 17.792 10.72C18.1333 10.5493 18.496 10.2827 18.88 9.92C19.2853 9.55733 19.6267 9.10933 19.904 8.576C20.2027 8.02133 20.352 7.40267 20.352 6.72C20.352 5.22667 20.032 3.98933 19.392 3.008C18.7733 2.00533 17.8133 1.25867 16.512 0.768C15.2107 0.256 13.536 0 11.488 0H0.864C0.629333 0 0.426667 0.0853335 0.256 0.256001C0.0853333 0.426668 0 0.629334 0 0.864V21.536C0 21.7707 0.0853333 21.9733 0.256 22.144ZM10.976 16.896H8V13.76H10.976C11.4667 13.76 11.8293 13.9307 12.064 14.272C12.32 14.592 12.448 14.944 12.448 15.328C12.448 15.6693 12.3307 16.0213 12.096 16.384C11.8827 16.7253 11.5093 16.896 10.976 16.896ZM10.688 8.416H8V5.504H10.688C11.1573 5.504 11.488 5.664 11.68 5.984C11.8933 6.304 12 6.63467 12 6.976C12 7.31733 11.8933 7.648 11.68 7.968C11.488 8.26667 11.1573 8.416 10.688 8.416ZM21.557 22.208C21.7063 22.336 21.877 22.4 22.069 22.4H27.989C28.4157 22.4 28.7143 22.3147 28.885 22.144C29.0557 21.952 29.173 21.7707 29.237 21.6L30.005 19.488H36.885L37.653 21.6C37.717 21.7707 37.8343 21.952 38.005 22.144C38.197 22.3147 38.4957 22.4 38.901 22.4H44.821C45.013 22.4 45.173 22.336 45.301 22.208C45.4503 22.0587 45.525 21.888 45.525 21.696C45.525 21.6107 45.5143 21.536 45.493 21.472L38.357 1.056C38.293 0.821334 38.1437 0.586667 37.909 0.352001C37.6743 0.117334 37.3437 0 36.917 0H29.973C29.5463 0 29.2157 0.117334 28.981 0.352001C28.7463 0.586667 28.597 0.821334 28.533 1.056L21.397 21.472C21.3757 21.536 21.365 21.6107 21.365 21.696C21.365 21.888 21.429 22.0587 21.557 22.208ZM35.253 13.248H31.637L33.429 7.296L35.253 13.248ZM47.5373 22.144C47.7079 22.3147 47.9106 22.4 48.1452 22.4H54.2573C54.4919 22.4 54.6946 22.3147 54.8652 22.144C55.0359 21.9733 55.1213 21.7707 55.1213 21.536V15.52H63.6333C63.8679 15.52 64.0706 15.4347 64.2412 15.264C64.4119 15.0933 64.4973 14.8907 64.4973 14.656V9.824C64.4973 9.58933 64.4119 9.38667 64.2412 9.216C64.0706 9.04533 63.8679 8.96 63.6333 8.96H55.1213V6.592H64.2733C64.5079 6.592 64.7106 6.50667 64.8812 6.336C65.0519 6.16533 65.1373 5.96267 65.1373 5.728V0.864C65.1373 0.629334 65.0519 0.426668 64.8812 0.256001C64.7106 0.0853335 64.5079 0 64.2733 0H48.1452C47.9106 0 47.7079 0.0853335 47.5373 0.256001C47.3666 0.426668 47.2812 0.629334 47.2812 0.864V21.536C47.2812 21.7707 47.3666 21.9733 47.5373 22.144ZM67.4287 22.26C67.5221 22.3533 67.6421 22.4 67.7887 22.4H70.3087C70.4554 22.4 70.5754 22.3533 70.6687 22.26C70.7754 22.1667 70.8288 22.0467 70.8288 21.9V19.36C70.8288 19.2267 70.7754 19.1133 70.6687 19.02C70.5754 18.9133 70.4554 18.86 70.3087 18.86H67.7887C67.6421 18.86 67.5221 18.9133 67.4287 19.02C67.3354 19.1133 67.2887 19.2267 67.2887 19.36V21.9C67.2887 22.0467 67.3354 22.1667 67.4287 22.26ZM74.2523 22.2C74.8257 22.4667 75.4723 22.6 76.1923 22.6C76.7123 22.6 77.1657 22.5333 77.5523 22.4C77.9523 22.28 78.299 22.1133 78.5923 21.9C78.8857 21.6867 79.119 21.4533 79.2923 21.2V21.9C79.2923 22.0467 79.339 22.1667 79.4323 22.26C79.5257 22.3533 79.6457 22.4 79.7923 22.4H82.1123C82.2457 22.4 82.359 22.3533 82.4523 22.26C82.559 22.1667 82.6123 22.0467 82.6123 21.9V15.82C82.6123 15.2333 82.519 14.7 82.3323 14.22C82.1457 13.7267 81.859 13.3 81.4723 12.94C81.099 12.58 80.6057 12.3 79.9923 12.1C79.379 11.9 78.639 11.8 77.7723 11.8C76.9457 11.8 76.239 11.9 75.6523 12.1C75.0657 12.3 74.5857 12.5533 74.2123 12.86C73.839 13.1667 73.559 13.48 73.3723 13.8C73.199 14.1067 73.1123 14.38 73.1123 14.62C73.099 14.74 73.1323 14.8467 73.2123 14.94C73.2923 15.02 73.4057 15.06 73.5523 15.06H75.7923C76.0057 15.06 76.1723 14.9733 76.2923 14.8C76.4257 14.5467 76.6057 14.3467 76.8323 14.2C77.0723 14.0533 77.379 13.98 77.7523 13.98C78.2857 13.98 78.6523 14.1067 78.8523 14.36C79.0523 14.6133 79.1523 14.98 79.1523 15.46V15.74L76.6523 16.12C75.3723 16.32 74.3457 16.7 73.5723 17.26C72.799 17.8067 72.4123 18.5533 72.4123 19.5C72.4123 20.0867 72.579 20.6133 72.9123 21.08C73.2457 21.5467 73.6923 21.92 74.2523 22.2ZM78.1723 20.08C77.8657 20.24 77.519 20.32 77.1323 20.32C76.8657 20.32 76.6257 20.28 76.4123 20.2C76.199 20.1067 76.0257 19.98 75.8923 19.82C75.759 19.66 75.6923 19.4667 75.6923 19.24C75.6923 18.9467 75.8323 18.6933 76.1123 18.48C76.4057 18.2533 76.8657 18.0867 77.4923 17.98L79.1923 17.68V17.96C79.1923 18.4933 79.099 18.94 78.9123 19.3C78.739 19.6467 78.4923 19.9067 78.1723 20.08ZM85.0092 22.26C85.1026 22.3533 85.2225 22.4 85.3692 22.4H87.7292C87.8625 22.4 87.9759 22.3533 88.0692 22.26C88.1759 22.1667 88.2292 22.0467 88.2292 21.9V12.5C88.2292 12.3533 88.1759 12.2333 88.0692 12.14C87.9759 12.0467 87.8625 12 87.7292 12H85.3692C85.2225 12 85.1026 12.0467 85.0092 12.14C84.9159 12.2333 84.8692 12.3533 84.8692 12.5V21.9C84.8692 22.0467 84.9159 22.1667 85.0092 22.26ZM84.9892 10.36C85.0826 10.4533 85.2026 10.5 85.3492 10.5H87.7292C87.8759 10.5 87.9959 10.4533 88.0892 10.36C88.1959 10.2667 88.2492 10.1467 88.2492 10V8.22C88.2492 8.07333 88.1959 7.95333 88.0892 7.86C87.9959 7.75333 87.8759 7.7 87.7292 7.7H85.3492C85.2026 7.7 85.0826 7.75333 84.9892 7.86C84.8959 7.95333 84.8492 8.07333 84.8492 8.22V10C84.8492 10.1467 84.8959 10.2667 84.9892 10.36ZM91.3373 22.26C91.4307 22.3533 91.5507 22.4 91.6973 22.4H94.1773C94.324 22.4 94.444 22.3533 94.5373 22.26C94.644 22.1667 94.6973 22.0467 94.6973 21.9V16.78C94.6973 16.2333 94.844 15.8133 95.1373 15.52C95.444 15.2133 95.8707 15.06 96.4173 15.06H98.3573C98.4907 15.06 98.604 15.0133 98.6973 14.92C98.804 14.8133 98.8573 14.6933 98.8573 14.56V12.5C98.8573 12.3533 98.804 12.2333 98.6973 12.14C98.604 12.0467 98.4907 12 98.3573 12H97.4773C96.8507 12 96.284 12.1133 95.7773 12.34C95.284 12.5667 94.8573 12.8867 94.4973 13.3V12.5C94.4973 12.3667 94.4507 12.2533 94.3573 12.16C94.264 12.0533 94.144 12 93.9973 12H91.6973C91.5507 12 91.4307 12.0533 91.3373 12.16C91.244 12.2533 91.1973 12.3667 91.1973 12.5V21.9C91.1973 22.0467 91.244 22.1667 91.3373 22.26ZM100.419 22.26C100.513 22.3533 100.633 22.4 100.779 22.4H103.139C103.286 22.4 103.406 22.3533 103.499 22.26C103.593 22.1667 103.639 22.0467 103.639 21.9V8.7C103.639 8.55333 103.593 8.43333 103.499 8.34C103.406 8.24667 103.286 8.2 103.139 8.2H100.779C100.633 8.2 100.513 8.24667 100.419 8.34C100.326 8.43333 100.279 8.55333 100.279 8.7V21.9C100.279 22.0467 100.326 22.1667 100.419 22.26ZM106.826 22.26C106.919 22.3533 107.039 22.4 107.186 22.4H109.546C109.679 22.4 109.792 22.3533 109.886 22.26C109.992 22.1667 110.046 22.0467 110.046 21.9V12.5C110.046 12.3533 109.992 12.2333 109.886 12.14C109.792 12.0467 109.679 12 109.546 12H107.186C107.039 12 106.919 12.0467 106.826 12.14C106.732 12.2333 106.686 12.3533 106.686 12.5V21.9C106.686 22.0467 106.732 22.1667 106.826 22.26ZM106.806 10.36C106.899 10.4533 107.019 10.5 107.166 10.5H109.546C109.692 10.5 109.812 10.4533 109.906 10.36C110.012 10.2667 110.066 10.1467 110.066 10V8.22C110.066 8.07333 110.012 7.95333 109.906 7.86C109.812 7.75333 109.692 7.7 109.546 7.7H107.166C107.019 7.7 106.899 7.75333 106.806 7.86C106.712 7.95333 106.666 8.07333 106.666 8.22V10C106.666 10.1467 106.712 10.2667 106.806 10.36ZM113.154 22.26C113.247 22.3533 113.367 22.4 113.514 22.4H116.014C116.147 22.4 116.26 22.3533 116.354 22.26C116.46 22.1667 116.514 22.0467 116.514 21.9V16.44C116.514 15.8133 116.674 15.3333 116.994 15C117.327 14.6533 117.767 14.48 118.314 14.48C118.9 14.48 119.34 14.6533 119.634 15C119.94 15.3333 120.094 15.8133 120.094 16.44V21.9C120.094 22.0467 120.14 22.1667 120.234 22.26C120.34 22.3533 120.46 22.4 120.594 22.4H123.114C123.247 22.4 123.36 22.3533 123.454 22.26C123.56 22.1667 123.614 22.0467 123.614 21.9V16.32C123.614 15.3467 123.44 14.5267 123.094 13.86C122.76 13.18 122.294 12.6667 121.694 12.32C121.107 11.9733 120.427 11.8 119.654 11.8C118.894 11.8 118.234 11.94 117.674 12.22C117.114 12.5 116.66 12.8467 116.314 13.26V12.5C116.314 12.3533 116.267 12.2333 116.174 12.14C116.08 12.0467 115.96 12 115.814 12H113.514C113.367 12 113.247 12.0467 113.154 12.14C113.06 12.2333 113.014 12.3533 113.014 12.5V21.9C113.014 22.0467 113.06 22.1667 113.154 22.26ZM126.886 21.32C127.819 22.1733 129.072 22.6 130.646 22.6C131.459 22.6 132.172 22.5 132.786 22.3C133.399 22.1 133.906 21.8467 134.306 21.54C134.719 21.22 135.032 20.9 135.246 20.58C135.459 20.26 135.572 19.9867 135.586 19.76C135.599 19.6267 135.559 19.5267 135.466 19.46C135.386 19.38 135.279 19.34 135.146 19.34H132.666C132.506 19.34 132.386 19.36 132.306 19.4C132.239 19.4267 132.146 19.5067 132.026 19.64C131.959 19.72 131.866 19.82 131.746 19.94C131.626 20.0467 131.472 20.1467 131.286 20.24C131.112 20.32 130.892 20.36 130.626 20.36C130.266 20.36 129.959 20.2667 129.706 20.08C129.452 19.8933 129.266 19.64 129.146 19.32C129.026 19 128.959 18.6467 128.946 18.26V18.18V18.12H135.346C135.479 18.12 135.592 18.0733 135.686 17.98C135.792 17.8867 135.846 17.7667 135.846 17.62V17.14C135.846 16.1133 135.652 15.2 135.266 14.4C134.879 13.6 134.299 12.9667 133.526 12.5C132.766 12.0333 131.799 11.8 130.626 11.8C129.599 11.8 128.699 12 127.926 12.4C127.166 12.7867 126.566 13.36 126.126 14.12C125.699 14.8667 125.466 15.7667 125.426 16.82V17.16V17.52C125.466 19.2 125.952 20.4667 126.886 21.32ZM132.326 16.14H128.946V16.1C128.946 15.6733 129.012 15.3 129.146 14.98C129.279 14.66 129.466 14.4133 129.706 14.24C129.959 14.0667 130.266 13.98 130.626 13.98C130.986 13.98 131.292 14.0667 131.546 14.24C131.812 14.4133 132.006 14.66 132.126 14.98C132.259 15.3 132.326 15.6733 132.326 16.1V16.14ZM139.781 22.32C140.394 22.5067 141.134 22.6 142.001 22.6C143.067 22.6 143.974 22.4667 144.721 22.2C145.467 21.92 146.027 21.5333 146.401 21.04C146.787 20.5467 146.981 19.98 146.981 19.34C146.981 18.86 146.867 18.4067 146.641 17.98C146.414 17.54 146.027 17.16 145.481 16.84C144.934 16.5067 144.201 16.2667 143.281 16.12C142.534 15.9733 141.981 15.84 141.621 15.72C141.274 15.6 141.041 15.4667 140.921 15.32C140.814 15.1733 140.761 15.0133 140.761 14.84C140.761 14.5867 140.861 14.38 141.061 14.22C141.261 14.06 141.541 13.98 141.901 13.98C142.221 13.98 142.487 14.0333 142.701 14.14C142.914 14.2467 143.101 14.3667 143.261 14.5C143.421 14.6333 143.581 14.74 143.741 14.82C143.781 14.8467 143.827 14.8733 143.881 14.9C143.934 14.9133 143.987 14.92 144.041 14.92H146.121C146.241 14.92 146.347 14.8733 146.441 14.78C146.534 14.6733 146.574 14.5533 146.561 14.42C146.547 14.18 146.441 13.9133 146.241 13.62C146.041 13.3267 145.741 13.04 145.341 12.76C144.954 12.48 144.474 12.2533 143.901 12.08C143.341 11.8933 142.674 11.8 141.901 11.8C140.927 11.8 140.107 11.96 139.441 12.28C138.774 12.5867 138.267 12.9867 137.921 13.48C137.574 13.9733 137.401 14.4867 137.401 15.02C137.401 15.62 137.541 16.1333 137.821 16.56C138.101 16.9733 138.501 17.3133 139.021 17.58C139.541 17.8333 140.147 18.04 140.841 18.2C141.574 18.3333 142.121 18.4667 142.481 18.6C142.854 18.7333 143.101 18.8733 143.221 19.02C143.341 19.1533 143.401 19.3267 143.401 19.54C143.401 19.8333 143.274 20.0533 143.021 20.2C142.767 20.3467 142.454 20.42 142.081 20.42C141.761 20.42 141.487 20.3667 141.261 20.26C141.034 20.1533 140.834 20.0333 140.661 19.9C140.487 19.7533 140.314 19.6333 140.141 19.54C140.087 19.5 140.047 19.4733 140.021 19.46C139.994 19.4467 139.961 19.44 139.921 19.44H137.641C137.521 19.44 137.407 19.4933 137.301 19.6C137.194 19.6933 137.147 19.8133 137.161 19.96C137.174 20.1733 137.274 20.4333 137.461 20.74C137.647 21.0333 137.927 21.32 138.301 21.6C138.687 21.88 139.181 22.12 139.781 22.32ZM161.963 0.59034L171.099 4.0169L175.956 1.53722C176.799 1.10597 177.737 0.880965 178.684 0.880965H181.374C182.64 0.880965 183.517 2.14659 183.071 3.32784C182.213 5.61065 180.526 7.48565 178.346 8.57784L165.554 14.9716C165.348 15.0747 165.118 15.131 164.884 15.131H158.429C157.993 15.131 157.576 14.9388 157.29 14.606L153.863 10.6075C153.545 10.2372 153.662 9.67003 154.098 9.44971L155.607 8.69503C156.006 8.49346 156.479 8.48409 156.887 8.6669L159.615 9.88096L164.232 7.52315L157.346 3.09347C156.859 2.7794 156.896 2.05284 157.417 1.79034L159.568 0.716903C160.313 0.341903 161.181 0.299715 161.963 0.59034ZM154.74 22.631C153.91 22.631 153.24 21.9607 153.24 21.131C153.24 20.3013 153.91 19.631 154.74 19.631H181.74C182.57 19.631 183.24 20.3013 183.24 21.131C183.24 21.9607 182.57 22.631 181.74 22.631H154.74Z" fill="white"/>
</svg>
