<svg width="24" height="24" viewBox="0 0 24 24" fill="none" xmlns="http://www.w3.org/2000/svg">
<path fill-rule="evenodd" clip-rule="evenodd" d="M12 21C13.1819 21 14.3522 20.7672 15.4442 20.3149C16.5361 19.8626 17.5282 19.1997 18.364 18.364C19.1997 17.5282 19.8626 16.5361 20.3149 15.4442C20.7672 14.3522 21 13.1819 21 12C21 10.8181 20.7672 9.64778 20.3149 8.55585C19.8626 7.46392 19.1997 6.47177 18.364 5.63604C17.5282 4.80031 16.5361 4.13738 15.4442 3.68508C14.3522 3.23279 13.1819 3 12 3C9.61305 3 7.32387 3.94821 5.63604 5.63604C3.94821 7.32387 3 9.61305 3 12C3 14.3869 3.94821 16.6761 5.63604 18.364C7.32387 20.0518 9.61305 21 12 21ZM12 5C11.975 5 11.83 5.01 11.58 5.292C11.332 5.572 11.062 6.036 10.815 6.694C10.62 7.214 10.452 7.822 10.319 8.5H13.681C13.548 7.822 13.38 7.214 13.185 6.694C12.938 6.036 12.668 5.573 12.419 5.292C12.17 5.01 12.025 5 12 5ZM8.942 5.992C8.64585 6.80579 8.42623 7.64543 8.286 8.5H5.936C6.66416 7.24211 7.7643 6.24084 9.085 5.634C9.035 5.751 8.988 5.871 8.942 5.992ZM8.05 10.5H5.161C4.94502 11.4883 4.94502 12.5117 5.161 13.5H8.051C7.98338 12.5011 7.98238 11.4989 8.05 10.5ZM8.286 15.5H5.936C6.66374 16.7579 7.76356 17.7592 9.084 18.366C8.92092 17.9748 8.78068 17.5745 8.664 17.167C8.50713 16.6188 8.38094 16.0623 8.286 15.5ZM10.319 15.5H13.681C13.548 16.178 13.38 16.786 13.185 17.306C12.938 17.964 12.668 18.427 12.419 18.708C12.169 18.99 12.025 19 12 19C11.97 19 11.775 18.981 11.457 18.556C11.15 18.146 10.841 17.492 10.586 16.61C10.486 16.266 10.396 15.894 10.319 15.5ZM13.945 13.5H10.055C9.98046 12.5014 9.98046 11.4986 10.055 10.5H13.945C14.0196 11.4986 14.0196 12.5014 13.945 13.5ZM15.714 15.5C15.554 16.427 15.333 17.275 15.058 18.008C15.012 18.129 14.965 18.248 14.915 18.366C16.2357 17.7592 17.3358 16.7579 18.064 15.5H15.714ZM18.839 13.5H15.949C16.0168 12.5011 16.0168 11.4989 15.949 10.5H18.839C19.055 11.4883 19.055 12.5117 18.839 13.5ZM14.915 5.634C16.2357 6.24084 17.3358 7.24211 18.064 8.5H15.714C15.5738 7.64542 15.3542 6.80578 15.058 5.992C15.0127 5.87172 14.9651 5.75236 14.915 5.634Z" fill="white"/>
</svg>
