<svg width="14" height="19" viewBox="0 0 14 19" fill="none" xmlns="http://www.w3.org/2000/svg">
<path d="M3.102 2.724C3 3.105 3 3.57 3 4.5V6.5C3 7.43 3 7.895 3.102 8.277C3.23847 8.78539 3.5063 9.24891 3.8786 9.62103C4.2509 9.99315 4.71455 10.2608 5.223 10.397C5.605 10.5 6.07 10.5 7 10.5C7.93 10.5 8.395 10.5 8.777 10.398C9.28539 10.2615 9.74891 9.9937 10.121 9.6214C10.4932 9.2491 10.7608 8.78545 10.897 8.277C11 7.895 11 7.43 11 6.5V4.5C11 3.57 11 3.105 10.898 2.724C10.7618 2.21525 10.4941 1.7513 10.1218 1.37881C9.74951 1.00632 9.28569 0.738405 8.777 0.602C8.395 0.5 7.93 0.5 7 0.5C6.07 0.5 5.605 0.5 5.223 0.602C4.7145 0.738558 4.25089 1.00654 3.87876 1.37902C3.50662 1.75151 3.23808 2.21537 3.102 2.724ZM6 12.5C4.4087 12.5 2.88258 13.1321 1.75736 14.2574C0.632141 15.3826 0 16.9087 0 18.5H14C14 16.9087 13.3679 15.3826 12.2426 14.2574C11.1174 13.1321 9.5913 12.5 8 12.5H6Z" fill="white"/>
</svg>
